<svg width="99" height="90" viewBox="0 0 99 90" fill="none" xmlns="http://www.w3.org/2000/svg">
<g filter="url(#filter0_d_7_314)">
<path d="M49.5 81.88C48.2625 81.88 47.025 81.6204 45.9937 81.1013C38.28 77.3188 24.7088 73.3138 16.2113 72.3125L15.015 72.1642C9.61125 71.5708 5.15625 67.0096 5.15625 62.0775V17.2808C5.15625 14.3513 6.435 11.6813 8.78625 9.75293C11.1375 7.82459 14.19 6.89751 17.4075 7.15709C26.4825 7.78751 40.1775 11.8667 47.9325 16.2425L48.9225 16.7617C49.2112 16.91 49.83 16.91 50.0775 16.7988L50.7375 16.4279C58.4925 12.0521 72.1875 7.89876 81.3037 7.19418C81.3862 7.19418 81.7162 7.19418 81.7987 7.19418C84.81 6.93459 87.9038 7.89876 90.2138 9.82709C92.565 11.7554 93.8438 14.4254 93.8438 17.355V62.1146C93.8438 67.0838 89.3888 71.6079 83.9438 72.2013L82.5825 72.3496C74.085 73.3508 60.4725 77.3929 52.9237 81.1383C51.9337 81.6575 50.7375 81.88 49.5 81.88ZM16.4175 12.6825C15.0975 12.6825 13.9013 13.0904 12.9525 13.8692C11.9213 14.7221 11.3438 15.9458 11.3438 17.2808V62.0775C11.3438 64.2654 13.4475 66.3792 15.7987 66.6758L17.0363 66.8242C26.3175 67.9367 40.5487 72.1271 48.7987 76.1692C49.17 76.3175 49.7063 76.3546 49.9125 76.2804C58.1625 72.1642 72.4762 67.9367 81.7987 66.8242L83.2013 66.6758C85.5525 66.4163 87.6562 64.2654 87.6562 62.0775V17.3179C87.6562 15.9458 87.0788 14.7592 86.0475 13.8692C84.975 13.0163 83.6137 12.6083 82.0875 12.6825C82.005 12.6825 81.675 12.6825 81.5925 12.6825C73.7138 13.3129 61.0087 17.1325 54.0787 21.0263L53.4187 21.4342C51.15 22.695 47.9325 22.695 45.7463 21.4713L44.7563 20.9521C37.7025 17.0583 24.9975 13.2758 16.9125 12.6825C16.7475 12.6825 16.5825 12.6825 16.4175 12.6825Z" fill="#292D32" fill-opacity="0.9"/>
<path d="M49.5 78.765C47.8088 78.765 46.4062 77.5042 46.4062 75.9838V20.3588C46.4062 18.8383 47.8088 17.5775 49.5 17.5775C51.1912 17.5775 52.5938 18.8383 52.5938 20.3588V75.9838C52.5938 77.5413 51.1912 78.765 49.5 78.765Z" fill="#292D32" fill-opacity="0.9"/>
<path d="M31.9688 34.265H22.6875C20.9963 34.265 19.5938 33.0042 19.5938 31.4838C19.5938 29.9633 20.9963 28.7025 22.6875 28.7025H31.9688C33.66 28.7025 35.0625 29.9633 35.0625 31.4838C35.0625 33.0042 33.66 34.265 31.9688 34.265Z" fill="#292D32" fill-opacity="0.9"/>
<path d="M35.0625 45.39H22.6875C20.9963 45.39 19.5938 44.1292 19.5938 42.6088C19.5938 41.0883 20.9963 39.8275 22.6875 39.8275H35.0625C36.7537 39.8275 38.1562 41.0883 38.1562 42.6088C38.1562 44.1292 36.7537 45.39 35.0625 45.39Z" fill="#292D32" fill-opacity="0.9"/>
</g>
<defs>
<filter id="filter0_d_7_314" x="-4" y="0" width="107" height="97" filterUnits="userSpaceOnUse" color-interpolation-filters="sRGB">
<feFlood flood-opacity="0" result="BackgroundImageFix"/>
<feColorMatrix in="SourceAlpha" type="matrix" values="0 0 0 0 0 0 0 0 0 0 0 0 0 0 0 0 0 0 127 0" result="hardAlpha"/>
<feOffset dy="4"/>
<feGaussianBlur stdDeviation="2"/>
<feComposite in2="hardAlpha" operator="out"/>
<feColorMatrix type="matrix" values="0 0 0 0 0 0 0 0 0 0 0 0 0 0 0 0 0 0 0.25 0"/>
<feBlend mode="normal" in2="BackgroundImageFix" result="effect1_dropShadow_7_314"/>
<feBlend mode="normal" in="SourceGraphic" in2="effect1_dropShadow_7_314" result="shape"/>
</filter>
</defs>
</svg>
