<svg width="104" height="93" viewBox="0 0 104 93" fill="none" xmlns="http://www.w3.org/2000/svg">
<g filter="url(#filter0_d_8_465)">
<path d="M15.117 69.5312C13.3462 69.5312 11.8777 68.2704 11.8777 66.75V25.9583C11.8777 9.60454 17.6653 4.63538 36.7126 4.63538H66.9464C85.9937 4.63538 91.7814 9.60454 91.7814 25.9583V63.0416C91.7814 63.635 91.7814 64.1912 91.7382 64.7845C91.6086 66.305 90.0105 67.4916 88.2829 67.3804C86.512 67.2691 85.1299 65.9341 85.2595 64.4137C85.3027 63.9687 85.3027 63.4866 85.3027 63.0416V25.9583C85.3027 12.7195 82.4089 10.1979 66.9464 10.1979H36.7126C21.2502 10.1979 18.3564 12.7195 18.3564 25.9583V66.75C18.3564 68.2704 16.8879 69.5312 15.117 69.5312Z" fill="#292D32" fill-opacity="0.9"/>
<path d="M73.4251 84.3646H30.2339C20.1272 84.3646 11.8777 77.2817 11.8777 68.6042V66.1938C11.8777 58.8142 18.8747 52.8438 27.4265 52.8438H88.542C90.3129 52.8438 91.7814 54.1046 91.7814 55.625V68.6042C91.7814 77.2817 83.5318 84.3646 73.4251 84.3646ZM27.4265 58.4063C22.4163 58.4063 18.3564 61.8921 18.3564 66.1938V68.6042C18.3564 74.2408 23.6689 78.8021 30.2339 78.8021H73.4251C79.9902 78.8021 85.3027 74.2408 85.3027 68.6042V58.4063H27.4265Z" fill="#292D32" fill-opacity="0.9"/>
<path d="M69.106 28.7396H34.5531C32.7822 28.7396 31.3137 27.4788 31.3137 25.9584C31.3137 24.438 32.7822 23.1771 34.5531 23.1771H69.106C70.8768 23.1771 72.3453 24.438 72.3453 25.9584C72.3453 27.4788 70.8768 28.7396 69.106 28.7396Z" fill="#292D32" fill-opacity="0.9"/>
<path d="M56.1486 41.7187H34.5531C32.7822 41.7187 31.3137 40.4579 31.3137 38.9375C31.3137 37.4171 32.7822 36.1562 34.5531 36.1562H56.1486C57.9195 36.1562 59.388 37.4171 59.388 38.9375C59.388 40.4579 57.9195 41.7187 56.1486 41.7187Z" fill="#292D32" fill-opacity="0.9"/>
</g>
<defs>
<filter id="filter0_d_8_465" x="-4" y="0" width="111.659" height="97" filterUnits="userSpaceOnUse" color-interpolation-filters="sRGB">
<feFlood flood-opacity="0" result="BackgroundImageFix"/>
<feColorMatrix in="SourceAlpha" type="matrix" values="0 0 0 0 0 0 0 0 0 0 0 0 0 0 0 0 0 0 127 0" result="hardAlpha"/>
<feOffset dy="4"/>
<feGaussianBlur stdDeviation="2"/>
<feColorMatrix type="matrix" values="0 0 0 0 0 0 0 0 0 0 0 0 0 0 0 0 0 0 0.25 0"/>
<feBlend mode="normal" in2="BackgroundImageFix" result="effect1_dropShadow_8_465"/>
<feBlend mode="normal" in="SourceGraphic" in2="effect1_dropShadow_8_465" result="shape"/>
</filter>
</defs>
</svg>
