<svg width="99" height="91" viewBox="0 0 99 91" fill="none" xmlns="http://www.w3.org/2000/svg">
<g filter="url(#filter0_d_8_368)">
<path d="M65.1431 74.8342C64.0718 74.8342 62.9593 74.7971 61.7644 74.6859C59.6218 74.5375 57.1908 74.1667 54.6773 73.6105L47.7551 72.1271C28.7602 68.085 22.5385 59.0367 26.9885 41.9784L31.0264 26.4405C31.9329 22.9175 33.0042 20.0621 34.3227 17.6888C41.4097 4.5242 54.9658 5.71087 64.6074 7.75045L71.4885 9.1967C81.1301 11.2363 87.2283 14.4625 90.6482 19.3946C94.0269 24.3267 94.5625 30.668 92.2963 39.3455L88.2584 54.8463C84.7148 68.4188 77.3394 74.8342 65.1431 74.8342ZM54.0593 12.0521C47.1783 12.0521 42.8107 14.6109 39.8852 20.0992C38.8139 22.1017 37.8662 24.5863 37.0422 27.7013L33.0042 43.2392C29.3371 57.2567 33.581 63.3755 49.156 66.713L56.0783 68.1963C58.3033 68.6784 60.4047 68.975 62.3 69.1234C73.5074 70.1246 79.0699 65.7117 82.2014 53.5855L86.2394 38.0846C88.0935 30.9275 87.8463 25.9213 85.3741 22.3242C82.9019 18.7271 78.0398 16.2796 70.0463 14.6109L63.1653 13.1646C59.7454 12.423 56.6963 12.0521 54.0593 12.0521Z" fill="#292D32" fill-opacity="0.9"/>
<path d="M34.3226 82.5105C23.7333 82.5105 16.9759 76.7996 12.6495 64.7475L7.37541 50.0996C1.52449 33.783 6.75736 24.5863 24.8046 19.3205L31.3148 17.4292C33.4574 16.8359 35.0643 16.428 36.5064 16.2055C37.7013 15.983 38.855 16.3909 39.5555 17.2438C40.256 18.0967 40.3796 19.2092 39.8851 20.1734C38.8138 22.1388 37.8662 24.6234 37.0833 27.7384L33.0453 43.2763C29.3782 57.2938 33.6222 63.4126 49.1972 66.7501L56.1194 68.2334C58.3444 68.7155 60.4458 69.0121 62.3412 69.1605C63.6597 69.2717 64.731 70.0875 65.1018 71.2371C65.4314 72.3867 64.937 73.5734 63.8657 74.2409C61.1462 75.9096 57.7263 77.3188 53.4 78.5796L46.8898 80.508C42.1513 81.843 38.031 82.5105 34.3226 82.5105ZM32.0564 23.0659L26.7412 24.6234C12.0314 28.888 8.52912 35.118 13.2675 48.3938L18.5416 63.0417C23.3212 76.2805 30.2435 79.4696 44.9532 75.2051L51.4634 73.2767C51.7106 73.2026 51.9166 73.1284 52.1638 73.0542L47.7962 72.1271C28.8013 68.0851 22.5796 59.0367 27.0296 41.9784L31.0675 26.4405C31.356 25.2538 31.6856 24.1042 32.0564 23.0659Z" fill="#292D32" fill-opacity="0.9"/>
<path d="M72.0653 38.9746C71.8181 38.9746 71.5708 38.9375 71.2824 38.9004L51.2986 34.3392C49.6505 33.9684 48.6616 32.4479 49.0736 30.9646C49.4857 29.4813 51.175 28.5913 52.8232 28.9621L72.807 33.5234C74.4551 33.8942 75.444 35.4146 75.032 36.8979C74.7023 38.1217 73.425 38.9746 72.0653 38.9746Z" fill="#292D32" fill-opacity="0.9"/>
<path d="M59.9927 51.5087C59.7454 51.5087 59.4982 51.4716 59.2098 51.4346L47.2195 48.6904C45.5714 48.3196 44.5825 46.7991 44.9945 45.3158C45.4066 43.8325 47.0959 42.9425 48.7441 43.3133L60.7343 46.0575C62.3825 46.4283 63.3714 47.9487 62.9593 49.4321C62.6297 50.6929 61.3936 51.5087 59.9927 51.5087Z" fill="#292D32" fill-opacity="0.9"/>
</g>
<defs>
<filter id="filter0_d_8_368" x="-4" y="0" width="106.889" height="97" filterUnits="userSpaceOnUse" color-interpolation-filters="sRGB">
<feFlood flood-opacity="0" result="BackgroundImageFix"/>
<feColorMatrix in="SourceAlpha" type="matrix" values="0 0 0 0 0 0 0 0 0 0 0 0 0 0 0 0 0 0 127 0" result="hardAlpha"/>
<feOffset dy="4"/>
<feGaussianBlur stdDeviation="2"/>
<feComposite in2="hardAlpha" operator="out"/>
<feColorMatrix type="matrix" values="0 0 0 0 0 0 0 0 0 0 0 0 0 0 0 0 0 0 0.25 0"/>
<feBlend mode="normal" in2="BackgroundImageFix" result="effect1_dropShadow_8_368"/>
<feBlend mode="normal" in="SourceGraphic" in2="effect1_dropShadow_8_368" result="shape"/>
</filter>
</defs>
</svg>
