<svg width="99" height="91" viewBox="0 0 99 91" fill="none" xmlns="http://www.w3.org/2000/svg">
<g filter="url(#filter0_d_8_412)">
<path d="M65.2163 74.8342C64.1438 74.8342 63.03 74.7971 61.8338 74.6859C59.6888 74.5375 57.2551 74.1667 54.7388 73.6105L47.8088 72.1271C28.7926 68.085 22.5638 59.0367 27.0188 41.9784L31.0613 26.4405C31.9688 22.9175 33.0413 20.0621 34.3613 17.6888C41.4563 4.5242 55.0276 5.71087 64.6801 7.75045L71.5688 9.1967C81.2213 11.2363 87.3263 14.4625 90.7501 19.3946C94.1326 24.3267 94.6688 30.668 92.4001 39.3455L88.3576 54.8463C84.8101 68.4188 77.4263 74.8342 65.2163 74.8342ZM54.1201 12.0521C47.2313 12.0521 42.8588 14.6109 39.9301 20.0992C38.8576 22.1017 37.9088 24.5863 37.0838 27.7013L33.0413 43.2392C29.3701 57.2567 33.6188 63.3755 49.2113 66.713L56.1413 68.1963C58.3688 68.6784 60.4726 68.975 62.3701 69.1234C73.5488 70.1246 79.1588 65.7117 82.2938 53.5855L86.3363 38.0846C88.1926 30.9275 87.945 25.9213 85.47 22.3242C82.995 18.7271 78.1276 16.2796 70.1251 14.6109L63.2363 13.1646C59.8126 12.423 56.7601 12.0521 54.1201 12.0521Z" fill="#292D32" fill-opacity="0.9"/>
<path d="M34.3613 82.5105C23.7601 82.5105 16.9951 76.7996 12.6638 64.7475L7.38384 50.0996C1.52634 33.783 6.76509 24.5863 24.8326 19.3205L31.3501 17.4292C33.4951 16.8359 35.1038 16.428 36.5476 16.2055C37.7026 15.983 38.8988 16.3909 39.6001 17.2438C40.3013 18.0967 40.4251 19.2092 39.9301 20.1734C38.8576 22.1388 37.9088 24.6234 37.1251 27.7384L33.0826 43.2763C29.4113 57.2938 33.6601 63.4126 49.2526 66.7501L56.1826 68.2334C58.4101 68.7155 60.5138 69.0121 62.4113 69.1605C63.7313 69.2717 64.8038 70.0875 65.1751 71.2371C65.5051 72.3867 65.0101 73.5734 63.9376 74.2409C61.2151 75.9096 57.7913 77.3188 53.4601 78.5796L46.9426 80.508C42.1988 81.843 38.0738 82.5105 34.3613 82.5105ZM32.0926 23.0659L26.7713 24.6234C12.0451 28.888 8.53884 35.118 13.2826 48.3938L18.5626 63.0417C23.3476 76.2805 30.2776 79.4696 45.0038 75.2051L51.5213 73.2767C51.7688 73.2026 51.9751 73.1284 52.2226 73.0542L47.8501 72.1271C28.8338 68.0851 22.6051 59.0367 27.0601 41.9784L31.1026 26.4405C31.3913 25.2538 31.7213 24.1042 32.0926 23.0659Z" fill="#292D32" fill-opacity="0.9"/>
</g>
<defs>
<filter id="filter0_d_8_412" x="-4" y="0" width="107" height="97" filterUnits="userSpaceOnUse" color-interpolation-filters="sRGB">
<feFlood flood-opacity="0" result="BackgroundImageFix"/>
<feColorMatrix in="SourceAlpha" type="matrix" values="0 0 0 0 0 0 0 0 0 0 0 0 0 0 0 0 0 0 127 0" result="hardAlpha"/>
<feOffset dy="4"/>
<feGaussianBlur stdDeviation="2"/>
<feComposite in2="hardAlpha" operator="out"/>
<feColorMatrix type="matrix" values="0 0 0 0 0 0 0 0 0 0 0 0 0 0 0 0 0 0 0.25 0"/>
<feBlend mode="normal" in2="BackgroundImageFix" result="effect1_dropShadow_8_412"/>
<feBlend mode="normal" in="SourceGraphic" in2="effect1_dropShadow_8_412" result="shape"/>
</filter>
</defs>
</svg>
